<svg id="Layer_1" data-name="Layer 1" xmlns="http://www.w3.org/2000/svg" viewBox="0 0 307.4 307.4"><path d="M450.6,539.5c4.8-2.5,9.2-5.1,13.8-7.2a60.3,60.3,0,0,1,25.5-5.1H614.4c10.4,0,15.2-4.8,15.2-15.1.1-7.2,0-14.5.1-21.7.1-2.5-.6-3.7-3.2-4.5-24-7.8-38.4-31.5-34.6-56.6s25-42.5,49.7-43a51.1,51.1,0,0,1,17.5,99.4c-3,1-3.9,2.4-3.8,5.5.1,8.2.4,16.5-.2,24.7-1.4,21.9-17.4,36.8-39.4,36.8H490c-19.6,0-34.9,12.3-38.8,30.9l-.3,1.5c-1.1,7.2-1.1,7.2,5.6,9.8,22.8,9.1,36.2,33.3,31.4,56.9s-26.3,42.1-51,41.7a51.5,51.5,0,0,1-49.8-42.3A50.9,50.9,0,0,1,421.8,594c2.4-.8,3-1.9,3-4.2-.1-33.3-.1-66.5,0-99.8,0-2.4-.8-3.4-3.1-4.1a50.9,50.9,0,0,1-34.6-57c3.9-24.1,25.6-42.5,50.3-42.6a51.5,51.5,0,0,1,50.7,42.6,50.9,50.9,0,0,1-34.2,56.9c-2.8,1-3.6,2.2-3.5,5,.1,15,0,30,0,45C450.4,537,450.5,538.2,450.6,539.5Zm-12.9,77.3A25.6,25.6,0,0,0,412,642.2c-.2,13.9,11.2,25.5,25.3,25.8s25.9-11.5,25.9-25.6A25.7,25.7,0,0,0,437.7,616.8Zm.1-153.6a25.7,25.7,0,0,0,25.4-25.7c0-14.2-11.9-25.9-25.9-25.6a25.7,25.7,0,0,0,.5,51.3Z" transform="translate(-386.4 -386.3)"/></svg>